<svg width="489" height="127" viewBox="0 0 489 127" fill="none" xmlns="http://www.w3.org/2000/svg">
<g clip-path="url(#clip0_9054_33074)">
<path d="M1346 127C1277.18 127 1241.12 107.036 1209.31 89.4249C1180.09 73.2367 1154.83 59.2667 1101.32 59.2667C1047.82 59.2667 1022.58 73.2367 993.341 89.4249C961.531 107.036 925.469 127 856.648 127C787.827 127 751.765 107.036 719.954 89.4249C690.736 73.2367 665.48 59.2667 611.989 59.2667C558.497 59.2667 533.242 73.2367 504.023 89.4249C472.212 107.036 436.15 127 367.329 127C298.509 127 262.447 107.036 230.636 89.4249C201.417 73.2367 176.179 59.2667 122.67 59.2667C69.1619 59.2667 43.9235 73.2367 14.7046 89.4249C-17.1058 107.036 -53.1678 127 -121.989 127C-190.81 127 -226.872 107.036 -258.682 89.4249C-287.901 73.2367 -313.139 59.2667 -366.648 59.2667C-420.156 59.2667 -445.395 73.2367 -474.614 89.4249C-506.424 107.036 -542.486 127 -611.307 127C-680.128 127 -716.19 107.036 -748 89.4249C-777.253 73.2367 -802.491 59.2667 -856 59.2667V0C-787.179 0 -751.117 19.9644 -719.307 37.5751C-690.088 53.7633 -664.849 67.7333 -611.341 67.7333C-557.832 67.7333 -532.594 53.7633 -503.375 37.5751C-471.565 19.9644 -435.503 0 -366.682 0C-297.861 0 -261.799 19.9644 -229.988 37.5751C-200.77 53.7633 -175.531 67.7333 -122.023 67.7333C-68.514 67.7333 -43.2757 53.7633 -14.0569 37.5751C17.7536 19.9644 53.8156 0 122.637 0C191.458 0 227.52 19.9644 259.33 37.5751C288.549 53.7633 313.787 67.7333 367.296 67.7333C420.804 67.7333 446.043 53.7633 475.261 37.5751C507.072 19.9644 543.134 0 611.955 0C680.776 0 716.838 19.9644 748.648 37.5751C777.867 53.7633 803.122 67.7333 856.614 67.7333C910.106 67.7333 935.361 53.7633 964.597 37.5751C996.407 19.9644 1032.47 0 1101.29 0C1170.11 0 1206.17 19.9644 1237.98 37.5751C1267.2 53.7633 1292.46 67.7333 1345.97 67.7333V127H1346Z" fill="white"/>
</g>
<defs>
<clipPath id="clip0_9054_33074">
<rect width="489" height="127" fill="white"/>
</clipPath>
</defs>
</svg>
